<?xml version="1.0" standalone="no"?>
<!DOCTYPE svg PUBLIC "-//W3C//DTD SVG 20010904//EN"
 "http://www.w3.org/TR/2001/REC-SVG-20010904/DTD/svg10.dtd">
<svg version="1.0" xmlns="http://www.w3.org/2000/svg"
 width="360.000000pt" height="360.000000pt" viewBox="0 0 360.000000 360.000000"
 preserveAspectRatio="xMidYMid meet">
<metadata>
Created by potrace 1.14, written by Peter Selinger 2001-2017
</metadata>
<g transform="translate(0.000000,360.000000) scale(0.100000,-0.100000)"
fill="#000000" stroke="none">
<path d="M1595 3590 c-142 -21 -144 -22 -265 -53 -616 -162 -1118 -671 -1273
-1292 -42 -165 -52 -250 -52 -440 0 -174 5 -242 25 -328 5 -23 11 -54 14 -69
20 -113 93 -313 159 -438 263 -497 731 -842 1277 -941 137 -24 415 -34 525
-18 33 5 76 11 95 14 48 7 62 10 170 38 421 111 803 390 1044 764 138 215 239
491 273 748 9 74 10 383 0 445 -4 25 -9 59 -11 75 -4 26 -32 152 -39 180 -147
517 -499 933 -980 1158 -142 67 -339 126 -472 143 -22 3 -47 8 -55 11 -23 9
-379 11 -435 3z m365 -684 c494 -73 876 -460 948 -961 8 -59 7 -280 -1 -353
-39 -330 -185 -629 -422 -867 -165 -166 -328 -272 -540 -350 -161 -60 -144
-75 -147 132 l-3 177 -40 2 c-176 8 -328 48 -473 126 -513 273 -733 882 -512
1418 52 126 163 291 249 368 14 13 40 36 56 51 46 41 172 124 235 154 118 56
240 92 350 104 25 3 46 6 48 8 5 5 205 -3 252 -9z"/>
<path d="M1103 1684 c-43 -21 -67 -74 -59 -127 4 -23 24 -77 45 -121 99 -210
272 -357 501 -427 172 -52 414 -27 570 59 169 93 283 215 361 388 55 120 46
194 -28 229 -75 36 -146 -4 -176 -98 -9 -28 -35 -80 -57 -114 -190 -289 -584
-336 -836 -100 -67 62 -98 109 -145 224 -24 58 -36 74 -64 87 -41 20 -71 20
-112 0z"/>
</g>
</svg>
