<svg width="319" height="146" viewBox="0 0 319 146" fill="none" xmlns="http://www.w3.org/2000/svg">
<rect x="1" y="1.80078" width="91.7556" height="98.2215" rx="7" fill="white" stroke="#EDEDFB" stroke-width="2"/>
<rect x="225.304" y="1.80078" width="91.7556" height="98.2215" rx="7" fill="white" stroke="#EDEDFB" stroke-width="2"/>
<rect x="113.722" y="1.80078" width="91.7556" height="98.2215" rx="7" fill="white" stroke="#EDEDFB" stroke-width="2"/>
<path d="M12.9006 126.22C13.2366 126.22 13.5066 126.328 13.7106 126.544C13.9146 126.748 14.0166 127.024 14.0166 127.372V138.028C14.0166 138.364 13.9206 138.628 13.7286 138.82C13.5366 139.012 13.2846 139.108 12.9726 139.108C12.6606 139.108 12.4146 139.012 12.2346 138.82C12.0546 138.628 11.9646 138.364 11.9646 138.028V130.612L8.90465 136.408C8.76065 136.672 8.60465 136.87 8.43665 137.002C8.26865 137.122 8.07065 137.182 7.84265 137.182C7.61465 137.182 7.41665 137.122 7.24865 137.002C7.08065 136.882 6.92465 136.684 6.78065 136.408L3.70265 130.702V138.028C3.70265 138.352 3.60665 138.616 3.41465 138.82C3.23465 139.012 2.98865 139.108 2.67665 139.108C2.36465 139.108 2.11865 139.012 1.93865 138.82C1.75865 138.628 1.66865 138.364 1.66865 138.028V127.372C1.66865 127.024 1.76465 126.748 1.95665 126.544C2.16065 126.328 2.43065 126.22 2.76665 126.22C3.23465 126.22 3.60065 126.478 3.86465 126.994L7.86065 134.608L11.8386 126.994C12.1026 126.478 12.4566 126.22 12.9006 126.22ZM23.5354 136.588C23.7394 136.588 23.9014 136.666 24.0214 136.822C24.1534 136.978 24.2194 137.188 24.2194 137.452C24.2194 137.824 23.9974 138.136 23.5534 138.388C23.1454 138.616 22.6834 138.802 22.1674 138.946C21.6514 139.078 21.1594 139.144 20.6914 139.144C19.2754 139.144 18.1534 138.736 17.3254 137.92C16.4974 137.104 16.0834 135.988 16.0834 134.572C16.0834 133.672 16.2634 132.874 16.6234 132.178C16.9834 131.482 17.4874 130.942 18.1354 130.558C18.7954 130.174 19.5394 129.982 20.3674 129.982C21.1594 129.982 21.8494 130.156 22.4374 130.504C23.0254 130.852 23.4814 131.344 23.8054 131.98C24.1294 132.616 24.2914 133.366 24.2914 134.23C24.2914 134.746 24.0634 135.004 23.6074 135.004H18.2974C18.3694 135.832 18.6034 136.444 18.9994 136.84C19.3954 137.224 19.9714 137.416 20.7274 137.416C21.1114 137.416 21.4474 137.368 21.7354 137.272C22.0354 137.176 22.3714 137.044 22.7434 136.876C23.1034 136.684 23.3674 136.588 23.5354 136.588ZM20.4214 131.566C19.8094 131.566 19.3174 131.758 18.9454 132.142C18.5854 132.526 18.3694 133.078 18.2974 133.798H22.3654C22.3414 133.066 22.1614 132.514 21.8254 132.142C21.4894 131.758 21.0214 131.566 20.4214 131.566ZM31.2439 129.982C32.2999 129.982 33.0859 130.282 33.6019 130.882C34.1179 131.482 34.3759 132.388 34.3759 133.6V138.028C34.3759 138.364 34.2739 138.628 34.0699 138.82C33.8779 139.012 33.6079 139.108 33.2599 139.108C32.9119 139.108 32.6359 139.012 32.4319 138.82C32.2279 138.628 32.1259 138.364 32.1259 138.028V133.726C32.1259 133.042 31.9939 132.544 31.7299 132.232C31.4779 131.92 31.0759 131.764 30.5239 131.764C29.8759 131.764 29.3539 131.968 28.9579 132.376C28.5739 132.784 28.3819 133.33 28.3819 134.014V138.028C28.3819 138.364 28.2799 138.628 28.0759 138.82C27.8719 139.012 27.5959 139.108 27.2479 139.108C26.8999 139.108 26.6239 139.012 26.4199 138.82C26.2279 138.628 26.1319 138.364 26.1319 138.028V131.062C26.1319 130.75 26.2339 130.498 26.4379 130.306C26.6419 130.114 26.9179 130.018 27.2659 130.018C27.5779 130.018 27.8299 130.114 28.0219 130.306C28.2259 130.486 28.3279 130.726 28.3279 131.026V131.512C28.6279 131.02 29.0299 130.642 29.5339 130.378C30.0379 130.114 30.6079 129.982 31.2439 129.982ZM40.6752 139.144C39.7752 139.144 38.9832 138.958 38.2992 138.586C37.6272 138.214 37.1052 137.68 36.7332 136.984C36.3612 136.288 36.1752 135.478 36.1752 134.554C36.1752 133.63 36.3612 132.826 36.7332 132.142C37.1052 131.446 37.6272 130.912 38.2992 130.54C38.9832 130.168 39.7752 129.982 40.6752 129.982C41.5752 129.982 42.3612 130.168 43.0332 130.54C43.7172 130.912 44.2392 131.446 44.5992 132.142C44.9712 132.826 45.1572 133.63 45.1572 134.554C45.1572 135.478 44.9712 136.288 44.5992 136.984C44.2392 137.68 43.7172 138.214 43.0332 138.586C42.3612 138.958 41.5752 139.144 40.6752 139.144ZM40.6572 137.398C41.3892 137.398 41.9472 137.158 42.3312 136.678C42.7152 136.198 42.9072 135.49 42.9072 134.554C42.9072 133.63 42.7152 132.928 42.3312 132.448C41.9472 131.956 41.3952 131.71 40.6752 131.71C39.9552 131.71 39.3972 131.956 39.0012 132.448C38.6172 132.928 38.4252 133.63 38.4252 134.554C38.4252 135.49 38.6172 136.198 39.0012 136.678C39.3852 137.158 39.9372 137.398 40.6572 137.398ZM51.9287 130.018C52.2407 129.994 52.4867 130.06 52.6667 130.216C52.8467 130.372 52.9367 130.606 52.9367 130.918C52.9367 131.242 52.8587 131.482 52.7027 131.638C52.5467 131.794 52.2647 131.896 51.8567 131.944L51.3167 131.998C50.6087 132.07 50.0867 132.31 49.7507 132.718C49.4267 133.126 49.2647 133.636 49.2647 134.248V138.028C49.2647 138.376 49.1567 138.646 48.9407 138.838C48.7247 139.018 48.4547 139.108 48.1307 139.108C47.8067 139.108 47.5367 139.018 47.3207 138.838C47.1167 138.646 47.0147 138.376 47.0147 138.028V131.062C47.0147 130.726 47.1167 130.468 47.3207 130.288C47.5367 130.108 47.8007 130.018 48.1127 130.018C48.4247 130.018 48.6767 130.108 48.8687 130.288C49.0607 130.456 49.1567 130.702 49.1567 131.026V131.746C49.3847 131.218 49.7207 130.81 50.1647 130.522C50.6207 130.234 51.1247 130.072 51.6767 130.036L51.9287 130.018Z" fill="#6D6E7C"/>
<path d="M278.919 126.22C279.255 126.22 279.525 126.328 279.729 126.544C279.933 126.748 280.035 127.024 280.035 127.372V138.028C280.035 138.364 279.939 138.628 279.747 138.82C279.555 139.012 279.303 139.108 278.991 139.108C278.679 139.108 278.433 139.012 278.253 138.82C278.073 138.628 277.983 138.364 277.983 138.028V130.612L274.923 136.408C274.779 136.672 274.623 136.87 274.455 137.002C274.287 137.122 274.089 137.182 273.861 137.182C273.633 137.182 273.435 137.122 273.267 137.002C273.099 136.882 272.943 136.684 272.799 136.408L269.721 130.702V138.028C269.721 138.352 269.625 138.616 269.433 138.82C269.253 139.012 269.007 139.108 268.695 139.108C268.383 139.108 268.137 139.012 267.957 138.82C267.777 138.628 267.687 138.364 267.687 138.028V127.372C267.687 127.024 267.783 126.748 267.975 126.544C268.179 126.328 268.449 126.22 268.785 126.22C269.253 126.22 269.619 126.478 269.883 126.994L273.879 134.608L277.857 126.994C278.121 126.478 278.475 126.22 278.919 126.22ZM286.404 129.982C287.628 129.982 288.534 130.288 289.122 130.9C289.722 131.5 290.022 132.418 290.022 133.654V138.046C290.022 138.37 289.926 138.628 289.734 138.82C289.542 139 289.278 139.09 288.942 139.09C288.63 139.09 288.372 138.994 288.168 138.802C287.976 138.61 287.88 138.358 287.88 138.046V137.65C287.676 138.118 287.352 138.484 286.908 138.748C286.476 139.012 285.972 139.144 285.396 139.144C284.808 139.144 284.274 139.024 283.794 138.784C283.314 138.544 282.936 138.214 282.66 137.794C282.384 137.374 282.246 136.906 282.246 136.39C282.246 135.742 282.408 135.232 282.732 134.86C283.068 134.488 283.608 134.218 284.352 134.05C285.096 133.882 286.122 133.798 287.43 133.798H287.88V133.384C287.88 132.796 287.754 132.37 287.502 132.106C287.25 131.83 286.842 131.692 286.278 131.692C285.93 131.692 285.576 131.746 285.216 131.854C284.856 131.95 284.43 132.094 283.938 132.286C283.626 132.442 283.398 132.52 283.254 132.52C283.038 132.52 282.858 132.442 282.714 132.286C282.582 132.13 282.516 131.926 282.516 131.674C282.516 131.47 282.564 131.296 282.66 131.152C282.768 130.996 282.942 130.852 283.182 130.72C283.602 130.492 284.1 130.312 284.676 130.18C285.264 130.048 285.84 129.982 286.404 129.982ZM285.846 137.524C286.446 137.524 286.932 137.326 287.304 136.93C287.688 136.522 287.88 136 287.88 135.364V134.986H287.556C286.752 134.986 286.128 135.022 285.684 135.094C285.24 135.166 284.922 135.292 284.73 135.472C284.538 135.652 284.442 135.898 284.442 136.21C284.442 136.594 284.574 136.912 284.838 137.164C285.114 137.404 285.45 137.524 285.846 137.524ZM298.447 130.666C298.543 130.45 298.669 130.294 298.825 130.198C298.993 130.09 299.173 130.036 299.365 130.036C299.641 130.036 299.887 130.132 300.103 130.324C300.331 130.504 300.445 130.732 300.445 131.008C300.445 131.14 300.409 131.278 300.337 131.422L295.423 141.718C295.219 142.126 294.901 142.33 294.469 142.33C294.193 142.33 293.947 142.24 293.731 142.06C293.527 141.892 293.425 141.676 293.425 141.412C293.425 141.28 293.461 141.13 293.533 140.962L294.757 138.388L291.409 131.422C291.349 131.302 291.319 131.164 291.319 131.008C291.319 130.732 291.433 130.498 291.661 130.306C291.901 130.114 292.171 130.018 292.471 130.018C292.675 130.018 292.861 130.072 293.029 130.18C293.197 130.276 293.329 130.432 293.425 130.648L295.945 136.21L298.447 130.666ZM305.657 139.144C304.757 139.144 303.965 138.958 303.281 138.586C302.609 138.214 302.087 137.68 301.715 136.984C301.343 136.288 301.157 135.478 301.157 134.554C301.157 133.63 301.343 132.826 301.715 132.142C302.087 131.446 302.609 130.912 303.281 130.54C303.965 130.168 304.757 129.982 305.657 129.982C306.557 129.982 307.343 130.168 308.015 130.54C308.699 130.912 309.221 131.446 309.581 132.142C309.953 132.826 310.139 133.63 310.139 134.554C310.139 135.478 309.953 136.288 309.581 136.984C309.221 137.68 308.699 138.214 308.015 138.586C307.343 138.958 306.557 139.144 305.657 139.144ZM305.639 137.398C306.371 137.398 306.929 137.158 307.313 136.678C307.697 136.198 307.889 135.49 307.889 134.554C307.889 133.63 307.697 132.928 307.313 132.448C306.929 131.956 306.377 131.71 305.657 131.71C304.937 131.71 304.379 131.956 303.983 132.448C303.599 132.928 303.407 133.63 303.407 134.554C303.407 135.49 303.599 136.198 303.983 136.678C304.367 137.158 304.919 137.398 305.639 137.398ZM316.91 130.018C317.222 129.994 317.468 130.06 317.648 130.216C317.828 130.372 317.918 130.606 317.918 130.918C317.918 131.242 317.84 131.482 317.684 131.638C317.528 131.794 317.246 131.896 316.838 131.944L316.298 131.998C315.59 132.07 315.068 132.31 314.732 132.718C314.408 133.126 314.246 133.636 314.246 134.248V138.028C314.246 138.376 314.138 138.646 313.922 138.838C313.706 139.018 313.436 139.108 313.112 139.108C312.788 139.108 312.518 139.018 312.302 138.838C312.098 138.646 311.996 138.376 311.996 138.028V131.062C311.996 130.726 312.098 130.468 312.302 130.288C312.518 130.108 312.782 130.018 313.094 130.018C313.406 130.018 313.658 130.108 313.85 130.288C314.042 130.456 314.138 130.702 314.138 131.026V131.746C314.366 131.218 314.702 130.81 315.146 130.522C315.602 130.234 316.106 130.072 316.658 130.036L316.91 130.018Z" fill="#6D6E7C"/>
<path d="M318.354 113.354C318.549 113.158 318.549 112.842 318.354 112.646L315.172 109.464C314.976 109.269 314.66 109.269 314.464 109.464C314.269 109.66 314.269 109.976 314.464 110.172L317.293 113L314.464 115.828C314.269 116.024 314.269 116.34 314.464 116.536C314.66 116.731 314.976 116.731 315.172 116.536L318.354 113.354ZM4.37114e-08 113.5L318 113.5L318 112.5L-4.37114e-08 112.5L4.37114e-08 113.5Z" fill="#9F9FB5"/>
</svg>
