<svg width="327" height="188" viewBox="0 0 327 188" fill="none" xmlns="http://www.w3.org/2000/svg">
<g filter="url(#filter0_i_2291:36149)">
<path d="M89.7556 80H12C8.13401 80 5 83.134 5 87V171.221C5 175.087 8.13401 178.221 12 178.221H89.7556C93.6216 178.221 96.7556 175.087 96.7556 171.221V87C96.7556 83.134 93.6216 80 89.7556 80Z" fill="#EDEDFB" stroke="white" stroke-width="2"/>
<path d="M48.8859 96.2383C41.2568 96.401 34.2679 99.1651 28.7705 103.679L48.8859 128.064V96.2383Z" fill="#D9D9ED"/>
<path d="M17.3711 122.707C18.7255 115.821 22.2311 109.707 27.1588 105.094L47.0791 129.243L17.3711 122.707Z" fill="#D9D9ED"/>
<path d="M17.0265 124.82C16.846 126.215 16.7529 127.636 16.7529 129.08C16.7529 134.18 17.9151 139.008 19.989 143.315L45.8687 131.166L17.0265 124.82Z" fill="#D9D9ED"/>
<path d="M20.9824 145.218L48.0074 132.531L36.4217 159.181C29.889 156.317 24.4674 151.387 20.9824 145.218Z" fill="#D9D9ED"/>
<path d="M38.4111 159.978C41.9032 161.243 45.6709 161.933 49.5998 161.933C53.1946 161.933 56.6545 161.356 59.8919 160.288L50.1884 132.887L38.4111 159.978Z" fill="#D9D9ED"/>
<path d="M61.9037 159.549L52.4121 132.746L77.5415 146.36C73.8853 152.261 68.4123 156.918 61.9037 159.549Z" fill="#D9D9ED"/>
<path d="M78.6105 144.503C81.0595 139.905 82.4473 134.655 82.4473 129.082C82.4473 128.206 82.413 127.338 82.3458 126.48L54.0479 131.197L78.6105 144.503Z" fill="#D9D9ED"/>
<path d="M82.1084 124.347L52.7949 129.234L72.4153 105.449C77.5289 110.387 81.0439 116.971 82.1084 124.347Z" fill="#D9D9ED"/>
<path d="M70.8254 104.011C65.4392 99.4445 58.5624 96.584 51.0283 96.2617V128.01L70.8254 104.011Z" fill="#D9D9ED"/>
<path fill-rule="evenodd" clip-rule="evenodd" d="M48.8859 96.2383C41.2568 96.401 34.2679 99.1651 28.7705 103.679L48.8859 128.064V96.2383ZM17.3714 122.705C18.7258 115.819 22.2314 109.705 27.1591 105.092L47.0794 129.241L17.3714 122.705ZM16.7529 129.082C16.7529 127.638 16.846 126.217 17.0265 124.822L45.8687 131.168L19.989 143.317C17.9151 139.01 16.7529 134.182 16.7529 129.082ZM20.9821 145.218L48.0071 132.531L36.4214 159.181C29.8887 156.317 24.4671 151.387 20.9821 145.218ZM49.6 161.932C45.6711 161.932 41.9034 161.242 38.4113 159.977L50.1886 132.886L59.8921 160.287C56.6547 161.355 53.1948 161.932 49.6 161.932ZM61.9036 159.55L52.412 132.747L77.5414 146.361C73.8852 152.262 68.4122 156.919 61.9036 159.55ZM82.447 129.082C82.447 134.655 81.0591 139.905 78.6101 144.503L54.0475 131.197L82.3455 126.48C82.4127 127.338 82.447 128.206 82.447 129.082ZM82.1084 124.347L52.7949 129.234L72.4153 105.449C77.5289 110.387 81.0439 116.971 82.1084 124.347ZM51.0281 96.2612C58.5622 96.5835 65.439 99.444 70.8252 104.01L51.0281 128.009V96.2612Z" fill="#28D2EE"/>
</g>
<g filter="url(#filter1_i_2291:36149)">
<path d="M200.756 1H123C119.134 1 116 4.13401 116 8V92.2215C116 96.0875 119.134 99.2215 123 99.2215H200.756C204.622 99.2215 207.756 96.0875 207.756 92.2215V8C207.756 4.13401 204.622 1 200.756 1Z" fill="#EDEDFB" stroke="white" stroke-width="2"/>
<path d="M160.099 17.2891C152.47 17.4518 145.481 20.2159 139.983 24.73L160.099 49.1152V17.2891Z" fill="#D9D9ED"/>
<path d="M128.584 43.7566C129.939 36.8709 133.444 30.7572 138.372 26.1445L158.292 50.2932L128.584 43.7566Z" fill="#D9D9ED"/>
<path d="M128.239 45.875C128.059 47.2692 127.966 48.6908 127.966 50.1342C127.966 55.2344 129.128 60.0632 131.202 64.3701L157.082 52.221L128.239 45.875Z" fill="#D9D9ED"/>
<path d="M132.195 66.2687L159.22 53.582L147.634 80.2322C141.102 77.3673 135.68 72.4376 132.195 66.2687Z" fill="#D9D9ED"/>
<path d="M149.624 81.0285C153.116 82.2937 156.884 82.9835 160.813 82.9835C164.408 82.9835 167.868 82.406 171.105 81.3386L161.402 53.9375L149.624 81.0285Z" fill="#D9D9ED"/>
<path d="M173.116 80.5997L163.625 53.7969L188.754 67.4102C185.098 73.3113 179.625 77.9683 173.116 80.5997Z" fill="#D9D9ED"/>
<path d="M189.823 65.5544C192.272 60.956 193.66 55.7065 193.66 50.1329C193.66 49.2573 193.626 48.3895 193.558 47.5312L165.26 52.2481L189.823 65.5544Z" fill="#D9D9ED"/>
<path d="M193.321 45.3989L164.008 50.285L183.628 26.5C188.742 31.4389 192.257 38.0225 193.321 45.3989Z" fill="#D9D9ED"/>
<path d="M182.038 25.0609C176.652 20.4954 169.775 17.6349 162.241 17.3125V49.0602L182.038 25.0609Z" fill="#D9D9ED"/>
<path fill-rule="evenodd" clip-rule="evenodd" d="M132.194 66.2694L159.219 53.5827L147.634 80.2329C141.101 77.368 135.679 72.4383 132.194 66.2694ZM160.812 82.9838C156.883 82.9838 153.116 82.294 149.624 81.0288L161.401 53.9378L171.104 81.3389C167.867 82.4063 164.407 82.9838 160.812 82.9838ZM173.116 80.6016L163.624 53.7988L188.754 67.4121C185.097 73.3132 179.624 77.9702 173.116 80.6016ZM193.659 50.133C193.659 55.7066 192.271 60.9561 189.822 65.5545L165.26 52.2482L193.558 47.5314C193.625 48.3897 193.659 49.2574 193.659 50.133ZM193.321 45.3989L164.007 50.285L183.628 26.5C188.741 31.4389 192.256 38.0225 193.321 45.3989Z" fill="#28D2EE"/>
</g>
<g filter="url(#filter2_i_2291:36149)">
<path d="M314.059 50H236.304C232.438 50 229.304 53.134 229.304 57V141.221C229.304 145.087 232.438 148.221 236.304 148.221H314.059C317.925 148.221 321.059 145.087 321.059 141.221V57C321.059 53.134 317.925 50 314.059 50Z" fill="#EDEDFB" stroke="white" stroke-width="2"/>
<path d="M273.19 65.9414C265.561 66.1041 258.572 68.8683 253.074 73.3824L273.19 97.7675V65.9414Z" fill="#D9D9ED"/>
<path d="M241.675 92.409C243.029 85.5233 246.535 79.4095 251.463 74.7969L271.383 98.9455L241.675 92.409Z" fill="#D9D9ED"/>
<path d="M241.33 94.5273C241.15 95.9215 241.057 97.3431 241.057 98.7864C241.057 103.887 242.219 108.716 244.293 113.022L270.172 100.873L241.33 94.5273Z" fill="#D9D9ED"/>
<path d="M245.286 114.921L272.311 102.234L260.725 128.885C254.192 126.02 248.771 121.09 245.286 114.921Z" fill="#D9D9ED"/>
<path d="M262.715 129.681C266.207 130.947 269.975 131.636 273.904 131.636C277.498 131.636 280.958 131.059 284.196 129.992L274.492 102.59L262.715 129.681Z" fill="#D9D9ED"/>
<path d="M286.207 129.252L276.716 102.449L301.845 116.063C298.189 121.964 292.716 126.621 286.207 129.252Z" fill="#D9D9ED"/>
<path d="M302.914 114.207C305.363 109.609 306.751 104.359 306.751 98.7852C306.751 97.9096 306.716 97.042 306.649 96.1836L278.351 100.901L302.914 114.207Z" fill="#D9D9ED"/>
<path d="M306.412 94.0512L277.099 98.9374L296.719 75.1523C301.833 80.0912 305.348 86.6749 306.412 94.0512Z" fill="#D9D9ED"/>
<path d="M295.129 73.7131C289.743 69.1477 282.866 66.2871 275.332 65.9648V97.7125L295.129 73.7131Z" fill="#D9D9ED"/>
<path fill-rule="evenodd" clip-rule="evenodd" d="M273.189 65.9414C265.56 66.1041 258.571 68.8683 253.074 73.3824L273.189 97.7675V65.9414ZM241.675 92.4077C243.029 85.522 246.535 79.4082 251.463 74.7956L271.383 98.9442L241.675 92.4077ZM245.285 114.921L272.311 102.234L260.725 128.885C254.192 126.02 248.771 121.09 245.285 114.921ZM273.903 131.635C269.975 131.635 266.207 130.946 262.715 129.68L274.492 102.589L284.195 129.991C280.958 131.058 277.498 131.635 273.903 131.635ZM286.207 129.253L276.715 102.45L301.845 116.064C298.189 121.965 292.716 126.622 286.207 129.253ZM306.75 98.7846C306.75 104.358 305.363 109.608 302.913 114.206L278.351 100.9L306.649 96.183C306.716 97.0414 306.75 97.909 306.75 98.7846ZM306.412 94.0505L277.098 98.9367L296.719 75.1516C301.832 80.0905 305.347 86.6742 306.412 94.0505ZM275.332 65.9643C282.866 66.2866 289.742 69.1472 295.129 73.7126L275.332 97.712V65.9643Z" fill="#28D2EE"/>
</g>
<defs>
<filter id="filter0_i_2291:36149" x="4" y="79" width="93.7559" height="104.223" filterUnits="userSpaceOnUse" color-interpolation-filters="sRGB">
<feFlood flood-opacity="0" result="BackgroundImageFix"/>
<feBlend mode="normal" in="SourceGraphic" in2="BackgroundImageFix" result="shape"/>
<feColorMatrix in="SourceAlpha" type="matrix" values="0 0 0 0 0 0 0 0 0 0 0 0 0 0 0 0 0 0 127 0" result="hardAlpha"/>
<feOffset dy="4"/>
<feGaussianBlur stdDeviation="2"/>
<feComposite in2="hardAlpha" operator="arithmetic" k2="-1" k3="1"/>
<feColorMatrix type="matrix" values="0 0 0 0 0 0 0 0 0 0 0 0 0 0 0 0 0 0 0.25 0"/>
<feBlend mode="normal" in2="shape" result="effect1_innerShadow_2291:36149"/>
</filter>
<filter id="filter1_i_2291:36149" x="115" y="0" width="93.7559" height="104.223" filterUnits="userSpaceOnUse" color-interpolation-filters="sRGB">
<feFlood flood-opacity="0" result="BackgroundImageFix"/>
<feBlend mode="normal" in="SourceGraphic" in2="BackgroundImageFix" result="shape"/>
<feColorMatrix in="SourceAlpha" type="matrix" values="0 0 0 0 0 0 0 0 0 0 0 0 0 0 0 0 0 0 127 0" result="hardAlpha"/>
<feOffset dy="4"/>
<feGaussianBlur stdDeviation="2"/>
<feComposite in2="hardAlpha" operator="arithmetic" k2="-1" k3="1"/>
<feColorMatrix type="matrix" values="0 0 0 0 0 0 0 0 0 0 0 0 0 0 0 0 0 0 0.25 0"/>
<feBlend mode="normal" in2="shape" result="effect1_innerShadow_2291:36149"/>
</filter>
<filter id="filter2_i_2291:36149" x="228.304" y="49" width="93.7554" height="104.223" filterUnits="userSpaceOnUse" color-interpolation-filters="sRGB">
<feFlood flood-opacity="0" result="BackgroundImageFix"/>
<feBlend mode="normal" in="SourceGraphic" in2="BackgroundImageFix" result="shape"/>
<feColorMatrix in="SourceAlpha" type="matrix" values="0 0 0 0 0 0 0 0 0 0 0 0 0 0 0 0 0 0 127 0" result="hardAlpha"/>
<feOffset dy="4"/>
<feGaussianBlur stdDeviation="2"/>
<feComposite in2="hardAlpha" operator="arithmetic" k2="-1" k3="1"/>
<feColorMatrix type="matrix" values="0 0 0 0 0 0 0 0 0 0 0 0 0 0 0 0 0 0 0.25 0"/>
<feBlend mode="normal" in2="shape" result="effect1_innerShadow_2291:36149"/>
</filter>
</defs>
</svg>
