<svg width="360" height="101" viewBox="0 0 360 101" fill="none" xmlns="http://www.w3.org/2000/svg">
  <path d="M376 2.41604V107.261C376 109.878 372.044 112 367.163 112H0.836577C-4.04363 112 -8 109.878 -8 107.261V2.41644C-8 0.985592 -5.34187 -0.0220433 -2.83975 0.474224C8.24326 2.67273 9.94863 11.7578 23.9987 11.7578C39.9977 11.7578 39.9977 0 55.9975 0C71.9972 0 71.9965 11.7578 87.9962 11.7578C103.996 11.7578 103.995 0 119.995 0C135.995 0 135.994 11.7578 151.994 11.7578C167.993 11.7578 167.993 0 183.992 0C199.992 0 199.991 11.7578 215.991 11.7578C231.991 11.7578 231.99 0 247.99 0C263.989 0 263.989 11.7578 279.989 11.7578C295.988 11.7578 295.988 0 311.995 0C327.994 0 327.994 11.7578 343.994 11.7578C358.076 11.7578 359.77 2.65763 370.867 0.468918C373.359 -0.0224517 376 0.991717 376 2.41604Z" fill="#40C1FA" />
  <path d="M376 34.3711V107.256C376 109.878 372.045 111.999 367.163 111.999H0.836577C-4.04515 111.999 -8 109.878 -8 107.26V34.3711C7.99899 34.3711 7.99899 46.1289 23.9987 46.1289C39.9985 46.1289 39.9977 34.3711 55.9975 34.3711C71.9972 34.3711 71.9965 46.1289 87.9962 46.1289C103.996 46.1289 103.995 34.3711 119.995 34.3711C135.995 34.3711 135.994 46.1289 151.994 46.1289C167.993 46.1289 167.993 34.3711 183.992 34.3711C199.992 34.3711 199.991 46.1289 215.991 46.1289C231.991 46.1289 231.99 34.3711 247.99 34.3711C263.989 34.3711 263.989 46.1289 279.989 46.1289C295.988 46.1289 295.988 34.3711 311.995 34.3711C327.994 34.3711 327.994 46.1289 343.994 46.1289C360.001 46.1289 360.001 34.3711 376 34.3711Z" fill="#07A9F0" />
  <path d="M376 68.7422V107.256C376 109.878 372.045 111.999 367.163 111.999H0.836577C-4.04515 111.999 -8 109.878 -8 107.26V68.7422C7.99899 68.7422 7.99899 80.5 23.9987 80.5C39.9985 80.5 39.9977 68.7422 55.9975 68.7422C71.9972 68.7422 71.9965 80.5 87.9962 80.5C103.996 80.5 103.995 68.7422 119.995 68.7422C135.995 68.7422 135.994 80.5 151.994 80.5C167.993 80.5 167.993 68.7422 183.992 68.7422C199.992 68.7422 199.991 80.5 215.991 80.5C231.991 80.5 231.99 68.7422 247.99 68.7422C263.989 68.7422 263.989 80.5 279.989 80.5C295.988 80.5 295.988 68.7422 311.995 68.7422C327.994 68.7422 327.994 80.5 343.994 80.5C360.001 80.5008 360.001 68.7422 376 68.7422Z" fill="#0691CE" />
</svg>