<svg width="67" height="98" viewBox="0 0 67 98" fill="none" xmlns="http://www.w3.org/2000/svg">
<path d="M51.8194 8.63869H63.4721C63.4744 8.79671 63.5288 8.94948 63.6266 9.07305C63.7245 9.19661 63.8604 9.28397 64.0129 9.32142C64.1654 9.35886 64.3259 9.34428 64.4693 9.27995C64.6127 9.21563 64.7308 9.1052 64.8051 8.966C65.1303 9.29331 65.4066 9.87592 64.9775 10.956C64.9775 10.956 66.7332 10.0363 66.9608 11.7547C67.0453 12.3831 67.1786 12.5533 65.2311 13.604C63.2835 14.6546 58.6797 17.4695 58.6797 17.4695C58.6797 17.4695 49.9011 18.3303 46.9229 11.2113C47.4713 10.4156 48.2033 9.76574 49.0562 9.31763C49.9091 8.86952 50.8573 8.63654 51.8194 8.63869Z" fill="#724320"/>
<path d="M64.187 9.41766C63.9821 9.4168 63.7857 9.33446 63.6408 9.18855C63.4958 9.04265 63.4141 8.84501 63.4132 8.63867H64.187C64.4396 8.70306 64.6721 8.83022 64.8633 9.00852C64.7974 9.13152 64.6998 9.23441 64.5808 9.30639C64.4619 9.37837 64.3258 9.4168 64.187 9.41766Z" fill="black"/>
<path d="M46.9221 11.2235C48.5738 7.37431 51.9584 0 53.6556 0L53.6816 4.88674C53.6816 4.88674 55.8958 2.12097 57.7686 2.16679L53.9612 8.63773H51.8186C50.8554 8.63704 49.9065 8.87203 49.0535 9.32247C48.2005 9.77291 47.4691 10.4253 46.9221 11.2235Z" fill="#301B0A"/>
<path d="M-0.000872612 48.9233C-0.00151634 50.3426 0.416019 51.7302 1.19888 52.9106C1.98175 54.0909 3.09478 55.011 4.39718 55.5545C5.69959 56.0979 7.13284 56.2403 8.51563 55.9635C9.89842 55.6868 11.1686 55.0034 12.1655 53.9998C13.1624 52.9962 13.8413 51.7175 14.1161 50.3255C14.391 48.9334 14.2496 47.4906 13.7098 46.1795C13.17 44.8683 12.256 43.7478 11.0835 42.9597C9.911 42.1716 8.53263 41.7513 7.12278 41.752C5.23348 41.752 3.42156 42.5075 2.08562 43.8524C0.749674 45.1973 -0.000872612 47.0214 -0.000872612 48.9233Z" fill="#301B0A"/>
<path d="M13.6653 45.0701H43.0215L40.3131 73.2712V97.9995L32.7083 75.415L24.9051 71.5495L13.3987 98.0158H8.24208C5.32839 86.675 3.8181 75.0151 3.74552 63.3013C3.74877 44.5137 13.6653 45.0701 13.6653 45.0701Z" fill="#724320"/>
<path d="M57.915 77.586C56.2894 80.4238 54.8978 82.643 54.2183 83.8049C51.9066 87.8145 47.3548 98.0004 47.3548 98.0004H40.3124V77.0918C46.1071 78.2826 52.0634 78.4499 57.915 77.586Z" fill="#BF842A"/>
<path d="M45.8664 14.6365C45.8673 14.2597 45.9033 13.8839 45.9737 13.5138C46.127 12.6915 46.4505 11.9109 46.9231 11.2227C49.9013 18.3417 58.6799 17.4808 58.6799 17.4808C58.6799 17.4808 67 40.3926 67 52.1757C67 60.4796 61.7979 70.8161 57.9158 77.5947C52.0642 78.4585 46.1079 78.2913 40.3132 77.1004V74.0237L45.8664 14.6365Z" fill="#CD9C50"/>
<path d="M64.2291 8.89062C64.7558 8.97573 65.3768 9.61398 64.7948 10.8807C64.7948 10.8807 61.9499 13.401 61.1533 11.172" stroke="black" stroke-width="2" stroke-linecap="round" stroke-linejoin="round"/>
<path d="M58.0195 11.6465C58.0195 11.6465 56.7613 13.0637 55.1551 11.6465" stroke="black" stroke-width="2" stroke-linecap="round" stroke-linejoin="round"/>
<path d="M57.7336 11.8945L58.2148 12.7095" stroke="black" stroke-width="2" stroke-linecap="round" stroke-linejoin="round"/>
<path d="M56.982 12.2344L57.1934 13.0494" stroke="black" stroke-width="2" stroke-linecap="round" stroke-linejoin="round"/>
<path d="M56.1758 12.2227L56.0587 13.0638" stroke="black" stroke-width="2" stroke-linecap="round" stroke-linejoin="round"/>
<path d="M55.4707 11.8945L54.9472 12.6179" stroke="black" stroke-width="2" stroke-linecap="round" stroke-linejoin="round"/>
<path d="M45.0795 96.8028L49.1209 81.7237C49.1209 81.7237 50.9417 80.6763 52.7852 78.2051" stroke="black" stroke-width="2" stroke-linecap="round" stroke-linejoin="round"/>
<path d="M12.7778 96.8028L16.8192 81.7237C16.8192 81.7237 18.6399 80.6763 20.4834 78.2051" stroke="black" stroke-width="2" stroke-linecap="round" stroke-linejoin="round"/>
<path d="M8.2415 97.9994C8.2415 96.6902 10.3744 95.6035 13.0015 95.6035C15.6285 95.6035 17.7646 96.6771 17.7646 97.9994H8.2415Z" fill="#301B0A"/>
<path d="M40.3128 97.9994C40.3128 96.6902 42.4457 95.6035 45.0727 95.6035C47.6998 95.6035 49.8359 96.6771 49.8359 97.9994H40.3128Z" fill="#301B0A"/>
<path opacity="0.5" d="M40.3125 98.0009L32.7076 75.4165L24.9045 71.5509L13.398 98.0172H8.24141C5.88455 88.8706 4.4403 79.5101 3.93015 70.0747C6.44748 62.7977 11.1457 56.4862 17.3768 52.0108C23.6079 47.5353 31.0649 45.1165 38.7193 45.0879H38.9957C40.3329 45.094 41.6689 45.1716 42.998 45.3203L40.3125 73.2889V98.0009Z" fill="#301B0A"/>
<path opacity="0.5" d="M11.1156 57.698C14.5648 53.7438 18.8097 50.5731 23.5687 48.396C28.3277 46.219 33.492 45.0853 38.7193 45.0703H38.9957C40.3329 45.0764 41.6689 45.154 42.998 45.3027L40.3125 73.2714V77.5264C37.4422 76.9649 34.6336 76.1207 31.9273 75.0061L26.2375 72.188C20.1459 68.6078 14.9681 63.6463 11.1156 57.698Z" fill="#301B0A" stroke="#301B0A" stroke-miterlimit="10"/>
<path style="mix-blend-mode:multiply" d="M43.0222 45.0706H13.666C13.4923 45.0665 13.3185 45.0742 13.1458 45.0935C12.5469 44.1372 11.7319 43.3369 10.7673 42.7581C9.80262 42.1792 8.71569 41.8381 7.59519 41.7627C6.47468 41.6872 5.35236 41.8795 4.31973 42.3239C3.28711 42.7683 2.37344 43.4521 1.65334 44.3196C0.93325 45.1871 0.427086 46.2138 0.176163 47.3157C-0.0747604 48.4177 -0.0633011 49.5637 0.209541 50.6604C0.482384 51.7571 1.00889 52.7732 1.74614 53.626C2.48339 54.4788 3.4105 55.1441 4.45178 55.5675C3.95631 58.1081 3.72097 60.6932 3.74948 63.2822C3.74948 66.084 3.85026 68.8268 4.01933 71.4649C4.01933 71.4977 4.01933 71.5304 4.01933 71.5631C4.04859 72.0181 4.08112 72.4698 4.11363 72.9182V73.0131C4.21767 74.4075 4.34447 75.7658 4.48103 77.0849V77.1601C4.52655 77.5857 4.57208 78.0112 4.62085 78.4301C4.62085 78.453 4.62085 78.4792 4.62085 78.5054C4.77041 79.8015 4.93081 81.0508 5.10204 82.2531C5.10065 82.2705 5.10065 82.288 5.10204 82.3055C5.15731 82.695 5.21259 83.0812 5.26786 83.4609V83.5263C5.44344 84.6916 5.62223 85.8175 5.8043 86.8584V86.9042C5.86282 87.2315 5.92136 87.5817 5.98314 87.9123V87.9712C6.16521 88.9793 6.34404 89.9242 6.51962 90.8057V90.8483C6.5738 91.1298 6.62908 91.4047 6.68544 91.6731V91.7353C6.74071 92.0037 6.79598 92.2688 6.85126 92.5241C6.96505 93.0445 7.07235 93.5355 7.17639 93.9904C7.17639 93.9904 7.17639 94.0101 7.17639 94.0199C7.22516 94.2392 7.27391 94.4487 7.31943 94.6483C7.31943 94.668 7.31943 94.6843 7.31943 94.7007L7.45274 95.2768V95.2964C7.54053 95.6695 7.62181 96.01 7.69659 96.3078C7.69783 96.3187 7.69783 96.3297 7.69659 96.3405C7.73236 96.4813 7.76485 96.6155 7.79736 96.7399C7.79549 96.7551 7.79549 96.7704 7.79736 96.7857C7.82663 96.91 7.85589 97.0213 7.8819 97.113V97.1326C7.93717 97.3486 7.9827 97.5221 8.01847 97.6563C8.01847 97.7218 8.04773 97.7774 8.06074 97.82C8.06074 97.8625 8.08023 97.8985 8.08673 97.9214V97.9444H17.7692C17.7692 96.8642 16.3516 95.9543 14.4008 95.6532L24.9221 71.5337L29.2301 73.671L31.9417 75.013L32.722 75.3992L40.3269 97.9836H49.837C49.837 97.257 49.1867 96.6089 48.1788 96.1671C49.5996 93.0576 52.5226 86.7503 54.2198 83.8045C54.8993 82.6262 56.2941 80.4071 57.9165 77.5856C61.7986 70.8071 67.0007 60.4706 67.0007 52.1667C67.0007 40.3835 58.6806 17.4718 58.6806 17.4718C58.6806 17.4718 63.2877 14.6701 65.2385 13.6161C67.1893 12.5622 67.0527 12.3952 66.9682 11.7668C66.7406 10.0484 64.9849 10.9682 64.9849 10.9682C65.3945 9.93715 65.1702 9.35454 64.8581 9.02723C64.8581 9.02723 64.8581 9.02722 64.8581 9.00758C64.667 8.82928 64.4344 8.70211 64.1818 8.63772H53.9564L57.7604 2.16679C55.8877 2.12097 53.6735 4.88674 53.6735 4.88674L53.6475 0C51.9503 0 48.5657 7.3743 46.914 11.2235C46.4414 11.9117 46.1179 12.6923 45.9646 13.5146C45.8942 13.8847 45.8583 14.2605 45.8574 14.6373L43.0222 45.0706Z" fill="url(#paint0_linear_1790:42087)"/>
<defs>
<linearGradient id="paint0_linear_1790:42087" x1="33.5023" y1="0" x2="33.5023" y2="98" gradientUnits="userSpaceOnUse">
<stop stop-color="white" stop-opacity="0"/>
<stop offset="0.26" stop-color="#F6F7F9" stop-opacity="0.04"/>
<stop offset="0.47" stop-color="#D9DCE4" stop-opacity="0.16"/>
<stop offset="0.65" stop-color="#A9AFC2" stop-opacity="0.35"/>
<stop offset="0.83" stop-color="#667193" stop-opacity="0.63"/>
<stop offset="1" stop-color="#0D1E54"/>
</linearGradient>
</defs>
</svg>
