<svg width="328" height="169" viewBox="0 0 328 169" fill="none" xmlns="http://www.w3.org/2000/svg">
<line x1="259.5" y1="54" x2="259.5" y2="96" stroke="white" stroke-width="3"/>
<rect x="232" y="1" width="54" height="70" rx="7" fill="white" stroke="#EDEDFB" stroke-width="2"/>
<line x1="124.5" y1="54" x2="124.5" y2="96" stroke="white" stroke-width="3"/>
<rect x="97" y="1" width="54" height="70" rx="7" fill="white" stroke="#EDEDFB" stroke-width="2"/>
<line x1="56.5" y1="54" x2="56.5" y2="96" stroke="white" stroke-width="3"/>
<rect x="29" y="1" width="54" height="70" rx="7" fill="white" stroke="#EDEDFB" stroke-width="2"/>
<rect x="1" y="85" width="326" height="83" rx="7" fill="white" stroke="#5DCBB5" stroke-width="2"/>
<line x1="21" y1="145.355" x2="308" y2="145.355" stroke="#6D6E7C" stroke-dasharray="2 2"/>
<path d="M308.669 142.358L311.174 144.612C311.615 145.009 311.615 145.702 311.174 146.099L308.669 148.353C308.025 148.933 307 148.476 307 147.61V143.101C307 142.235 308.025 141.778 308.669 142.358Z" fill="#6D6E7C"/>
<path d="M21.0023 119.963C20.0023 119.963 19.2383 119.595 18.7103 118.859C18.1823 118.115 17.9183 117.035 17.9183 115.619C17.9183 114.211 18.1823 113.139 18.7103 112.403C19.2383 111.659 20.0023 111.287 21.0023 111.287C22.0023 111.287 22.7663 111.659 23.2943 112.403C23.8223 113.139 24.0863 114.211 24.0863 115.619C24.0863 117.027 23.8223 118.103 23.2943 118.847C22.7663 119.591 22.0023 119.963 21.0023 119.963ZM21.0023 118.751C21.5463 118.751 21.9423 118.503 22.1903 118.007C22.4383 117.503 22.5623 116.707 22.5623 115.619C22.5623 114.523 22.4383 113.731 22.1903 113.243C21.9423 112.747 21.5463 112.499 21.0023 112.499C20.4583 112.499 20.0623 112.747 19.8143 113.243C19.5663 113.739 19.4423 114.531 19.4423 115.619C19.4423 116.707 19.5663 117.503 19.8143 118.007C20.0623 118.503 20.4583 118.751 21.0023 118.751Z" fill="#082927"/>
<path d="M294.414 118.607C294.894 118.607 295.134 118.811 295.134 119.219C295.134 119.643 294.894 119.855 294.414 119.855H290.358C289.87 119.855 289.626 119.643 289.626 119.219C289.626 118.811 289.87 118.607 290.358 118.607H291.606V113.135L290.454 113.843C290.342 113.907 290.242 113.939 290.154 113.939C289.986 113.939 289.842 113.867 289.722 113.723C289.61 113.579 289.554 113.419 289.554 113.243C289.554 113.011 289.658 112.831 289.866 112.703L291.726 111.551C291.966 111.407 292.194 111.335 292.41 111.335C292.634 111.335 292.814 111.403 292.95 111.539C293.086 111.675 293.154 111.863 293.154 112.103V118.607H294.414Z" fill="#082927"/>
<line x1="160.5" y1="149.855" x2="160.5" y2="141.855" stroke="#6D6E7C" stroke-width="3"/>
<line x1="20.5" y1="149.855" x2="20.5" y2="141.855" stroke="#6D6E7C" stroke-width="3"/>
<line x1="53.5" y1="148" x2="53.5" y2="87" stroke="#1FCBAB" stroke-width="3" stroke-dasharray="4 4"/>
<line x1="123.5" y1="148" x2="123.5" y2="87" stroke="#1FCBAB" stroke-width="3" stroke-dasharray="4 4"/>
<line x1="258.5" y1="148" x2="258.5" y2="87" stroke="#1FCBAB" stroke-width="3" stroke-dasharray="4 4"/>
<line x1="53.5" y1="149.855" x2="53.5" y2="141.855" stroke="#6D6E7C" stroke-width="3"/>
<line x1="290.5" y1="149.855" x2="290.5" y2="141.855" stroke="#6D6E7C" stroke-width="3"/>
<line x1="123.5" y1="149.855" x2="123.5" y2="141.855" stroke="#6D6E7C" stroke-width="3"/>
<line x1="86.5" y1="149.855" x2="86.5" y2="141.855" stroke="#6D6E7C" stroke-width="3"/>
<line x1="196.5" y1="149.855" x2="196.5" y2="141.855" stroke="#6D6E7C" stroke-width="3"/>
<line x1="227.5" y1="149.855" x2="227.5" y2="141.855" stroke="#6D6E7C" stroke-width="3"/>
<line x1="258.5" y1="149.855" x2="258.5" y2="141.855" stroke="#6D6E7C" stroke-width="3"/>
</svg>
