<svg width="67" height="98" viewBox="0 0 67 98" fill="none" xmlns="http://www.w3.org/2000/svg">
<g clip-path="url(#clip0_1790:42114)">
<g style="mix-blend-mode:multiply">
<path d="M51.8191 8.63773H63.4719C63.4742 8.79575 63.5285 8.94853 63.6264 9.07209C63.7243 9.19565 63.8601 9.28301 64.0126 9.32046C64.1651 9.35791 64.3257 9.34332 64.4691 9.279C64.6125 9.21467 64.7306 9.10424 64.8049 8.96504C65.13 9.29235 65.4064 9.87496 64.9772 10.9551C64.9772 10.9551 66.7329 10.0353 66.9605 11.7537C67.0451 12.3822 67.1784 12.5524 65.2308 13.603C63.2833 14.6537 58.6794 17.4686 58.6794 17.4686C58.6794 17.4686 49.9008 18.3294 46.9226 11.2104C47.471 10.4146 48.2031 9.76479 49.056 9.31667C49.9089 8.86856 50.8571 8.63558 51.8191 8.63773Z" fill="#EDEDFB"/>
<path d="M64.1872 9.41671C63.9823 9.41585 63.7859 9.33351 63.641 9.1876C63.4961 9.0417 63.4143 8.84406 63.4134 8.63772H64.1872C64.4398 8.70211 64.6723 8.82927 64.8635 9.00758C64.7976 9.13057 64.7 9.23346 64.581 9.30544C64.4621 9.37742 64.326 9.41585 64.1872 9.41671Z" fill="#EDEDFB"/>
<path d="M46.9226 11.2235C48.5743 7.37431 51.9589 0 53.6561 0L53.6821 4.88674C53.6821 4.88674 55.8963 2.12097 57.769 2.16679L53.9617 8.63773L51.8191 8.63773C50.8559 8.63704 49.907 8.87203 49.054 9.32247C48.201 9.77291 47.4696 10.4253 46.9226 11.2235Z" fill="#EDEDFB"/>
<path d="M-0.000424484 48.9231C-0.00106751 50.3424 0.416467 51.73 1.19933 52.9103C1.9822 54.0907 3.09523 55.0108 4.39763 55.5542C5.70003 56.0977 7.13329 56.24 8.51608 55.9633C9.89886 55.6866 11.169 55.0032 12.166 53.9996C13.1629 52.996 13.8417 51.7173 14.1166 50.3253C14.3915 48.9332 14.2501 47.4904 13.7103 46.1792C13.1704 44.8681 12.2565 43.7476 11.084 42.9595C9.91144 42.1714 8.53308 41.7511 7.12323 41.7517C5.23392 41.7517 3.42201 42.5073 2.08607 43.8521C0.750122 45.197 -0.000424484 47.0211 -0.000424484 48.9231Z" fill="#EDEDFB"/>
<path d="M13.6649 45.0706H43.0211L40.3127 73.2717V98L32.7079 75.4156L24.9047 71.55L13.3983 98.0163H8.24166C5.32796 86.6755 3.81767 75.0156 3.74509 63.3018C3.74834 44.5142 13.6649 45.0706 13.6649 45.0706Z" fill="#EDEDFB"/>
<path d="M57.9153 77.5857C56.2897 80.4234 54.8981 82.6426 54.2186 83.8046C51.9069 87.8141 47.3551 98 47.3551 98L40.3127 98L40.3127 77.0914C46.1074 78.2823 52.0637 78.4495 57.9153 77.5857Z" fill="#EDEDFB"/>
<path d="M45.866 14.6373C45.8669 14.2605 45.9028 13.8847 45.9733 13.5146C46.1266 12.6923 46.45 11.9117 46.9226 11.2235C49.9008 18.3425 58.6794 17.4816 58.6794 17.4816C58.6794 17.4816 66.9996 40.3934 66.9996 52.1766C66.9996 60.4804 61.7974 70.8169 57.9154 77.5955C52.0637 78.4593 46.1074 78.2921 40.3127 77.1012V74.0245L45.866 14.6373Z" fill="#EDEDFB"/>
<path d="M64.2294 8.88975C64.7562 8.97485 65.3772 9.6131 64.7952 10.8798C64.7952 10.8798 61.9503 13.4001 61.1537 11.1711" fill="#EDEDFB"/>
<path d="M58.0194 11.6457C58.0194 11.6457 56.7611 13.063 55.155 11.6457H58.0194Z" fill="#EDEDFB"/>
<path d="M45.0792 96.8021L49.1206 81.7229C49.1206 81.7229 50.9413 80.6755 52.7848 78.2043" fill="#EDEDFB"/>
<path d="M12.7773 96.8021L16.8187 81.7229C16.8187 81.7229 18.6394 80.6755 20.4829 78.2043" fill="#EDEDFB"/>
<path d="M8.24164 98C8.24164 96.6908 10.3745 95.6041 13.0016 95.6041C15.6287 95.6041 17.7648 96.6777 17.7648 98H8.24164Z" fill="#EDEDFB"/>
<path d="M40.3127 98C40.3127 96.6907 42.4456 95.6041 45.0727 95.6041C47.6997 95.6041 49.8359 96.6777 49.8359 98L40.3127 98Z" fill="#EDEDFB"/>
<path d="M40.3127 98L32.7079 75.4156L24.9047 71.55L13.3983 98.0163H8.24166C5.8848 88.8698 4.44058 79.5092 3.93042 70.0739C6.44776 62.7968 11.146 56.4853 17.3771 52.0099C23.6082 47.5345 31.0652 45.1156 38.7196 45.087H38.9959C40.3332 45.0932 41.6692 45.1707 42.9983 45.3194L40.3127 73.2881L40.3127 98Z" fill="#EDEDFB"/>
<path d="M11.1159 57.6983C14.5651 53.7441 18.8099 50.5734 23.5689 48.3964C28.3279 46.2193 33.4923 45.0857 38.7196 45.0706H38.9959C40.3332 45.0768 41.6692 45.1544 42.9983 45.303L40.3127 73.2717L40.3127 77.5267C37.4424 76.9652 34.6339 76.121 31.9276 75.0064L26.2378 72.1883C20.1462 68.6081 14.9683 63.6466 11.1159 57.6983Z" fill="#EDEDFB"/>
<path d="M43.0222 45.0706H13.666C13.4923 45.0665 13.3185 45.0742 13.1458 45.0935C12.5469 44.1372 11.7319 43.3369 10.7673 42.7581C9.80263 42.1792 8.71571 41.8381 7.5952 41.7627C6.47469 41.6872 5.35237 41.8795 4.31975 42.3239C3.28712 42.7683 2.37346 43.4521 1.65336 44.3196C0.933262 45.1871 0.427097 46.2138 0.176176 47.3157C-0.0747453 48.4177 -0.0632885 49.5637 0.209554 50.6604C0.482397 51.7571 1.0089 52.7732 1.74615 53.626C2.4834 54.4788 3.41052 55.1441 4.45179 55.5675C3.95632 58.1081 3.72098 60.6932 3.7495 63.2822C3.7495 66.084 3.85027 68.8268 4.01934 71.4649C4.01934 71.4977 4.01934 71.5304 4.01934 71.5631C4.0486 72.0181 4.08113 72.4698 4.11364 72.9182V73.0131C4.21768 74.4075 4.34449 75.7658 4.48104 77.0849V77.1601C4.52656 77.5857 4.5721 78.0112 4.62087 78.4301C4.62087 78.453 4.62087 78.4792 4.62087 78.5054C4.77043 79.8015 4.93082 81.0508 5.10206 82.2531C5.10067 82.2705 5.10067 82.288 5.10206 82.3055C5.15733 82.695 5.2126 83.0812 5.26788 83.4609V83.5263C5.44345 84.6916 5.62224 85.8175 5.80431 86.8584V86.9042C5.86284 87.2315 5.92138 87.5817 5.98315 87.9123V87.9712C6.16523 88.9793 6.34406 89.9242 6.51963 90.8057V90.8483C6.57382 91.1298 6.62909 91.4047 6.68545 91.6731V91.7353C6.74072 92.0037 6.796 92.2688 6.85127 92.5241C6.96507 93.0445 7.07236 93.5355 7.1764 93.9904C7.1764 93.9904 7.1764 94.0101 7.1764 94.0199C7.22517 94.2392 7.27392 94.4487 7.31944 94.6483C7.31944 94.668 7.31944 94.6843 7.31944 94.7007L7.45276 95.2768V95.2964C7.54054 95.6695 7.62182 96.01 7.69661 96.3078C7.69784 96.3187 7.69784 96.3297 7.69661 96.3405C7.73237 96.4813 7.76486 96.6155 7.79738 96.7399C7.79551 96.7551 7.79551 96.7705 7.79738 96.7857C7.82664 96.91 7.8559 97.0213 7.88191 97.113V97.1326C7.93719 97.3486 7.98272 97.5221 8.01848 97.6563C8.01848 97.7218 8.04775 97.7774 8.06075 97.82C8.06075 97.8625 8.08025 97.8985 8.08675 97.9214V97.9444H17.7692C17.7692 96.8642 16.3516 95.9543 14.4008 95.6532L24.9221 71.5337L32.722 75.3992L40.3269 97.9836H49.837C49.837 97.257 49.1867 96.6089 48.1788 96.1671C49.5997 93.0576 52.5226 86.7503 54.2198 83.8045C54.8993 82.6262 56.2941 80.4071 57.9165 77.5856C61.7986 70.8071 67.0007 60.4706 67.0007 52.1667C67.0007 40.3835 58.6806 17.4718 58.6806 17.4718C58.6806 17.4718 63.2877 14.6701 65.2385 13.6161C67.1893 12.5622 67.0527 12.3952 66.9682 11.7668C66.7406 10.0484 64.9849 10.9682 64.9849 10.9682C65.3946 9.93715 65.1702 9.35454 64.8581 9.02723C64.8581 9.02723 64.8581 9.02722 64.8581 9.00758C64.667 8.82928 64.4344 8.70211 64.1818 8.63772H53.9564L57.7605 2.16679C55.8877 2.12097 53.6735 4.88674 53.6735 4.88674L53.6475 0C51.9503 0 48.5657 7.3743 46.9141 11.2235C46.4414 11.9117 46.118 12.6923 45.9647 13.5146C45.8942 13.8847 45.8583 14.2605 45.8574 14.6373L43.0222 45.0706Z" fill="#EDEDFB"/>
</g>
</g>
<defs>
<clipPath id="clip0_1790:42114">
<rect width="67" height="98" fill="white" transform="matrix(-1 0 0 1 67 0)"/>
</clipPath>
</defs>
</svg>
