<svg width="165" height="186" viewBox="0 0 165 186" fill="none" xmlns="http://www.w3.org/2000/svg">
<g filter="url(#filter0_d)">
<path d="M73.7386 176.192C83.0041 172.984 87.6992 162.291 84.2255 152.307C80.7518 142.323 70.4247 136.83 61.1593 140.037C51.8939 143.245 47.1988 153.939 50.6725 163.923C54.1462 173.907 64.4732 179.4 73.7386 176.192Z" fill="url(#paint0_linear)"/>
<path style="mix-blend-mode:multiply" d="M71.8355 171.455C79.2629 168.884 83.027 160.312 80.2428 152.31C77.4586 144.308 69.1805 139.905 61.7532 142.477C54.3258 145.048 50.5617 153.62 53.3459 161.622C56.1301 169.624 64.4082 174.026 71.8355 171.455Z" fill="url(#paint1_linear)"/>
<path opacity="0.4" d="M68.7569 162.389C73.312 160.812 75.6204 155.555 73.9127 150.647C72.2051 145.739 67.1281 143.039 62.573 144.616C58.0178 146.193 55.7095 151.45 57.4172 156.358C59.1248 161.266 64.2018 163.966 68.7569 162.389Z" fill="white"/>
<path opacity="0.4" d="M67.0978 157.885C70.0202 156.874 71.5012 153.501 70.4057 150.352C69.3101 147.203 66.0529 145.471 63.1304 146.483C60.208 147.495 58.727 150.867 59.8225 154.016C60.9181 157.165 64.1753 158.897 67.0978 157.885Z" fill="white"/>
<path d="M29.4251 114.924C29.4251 114.924 27.9665 118.231 29.1597 120.878C30.353 123.525 33.4021 124.182 33.4021 124.182C33.4021 124.182 30.6184 124.05 31.6781 126.035C32.7377 128.019 41.3595 125.77 42.2892 122.331C43.2188 118.891 39.3701 112.94 37.1136 112.94C34.8571 112.94 29.4251 114.924 29.4251 114.924Z" fill="#4BA3BD"/>
<path d="M42.9297 93.4245C35.2376 87.99 24.183 95.1833 20.4982 101.735C16.8133 108.287 25.3068 119.796 27.2267 120.595C29.1466 121.394 45.0116 117.239 46.294 112.764C47.5763 108.289 42.9297 93.4245 42.9297 93.4245Z" fill="#C5E9FB"/>
<path d="M33.207 91.9961C27.8462 93.4173 22.7704 97.6952 20.4979 101.735C18.1826 105.857 20.676 111.938 23.3315 116.082C22.8631 112.885 22.4677 108.161 23.0572 103.151C23.636 98.2442 28.7118 94.4406 33.207 91.9961Z" fill="#FBFDFE"/>
<path d="M64.9855 112.43C49.5034 114.398 45.3181 119.563 45.2023 121.092C45.0866 122.622 45.4837 141.059 49.1454 143.258C52.8071 145.458 60.3959 145.977 67.1013 145.39C73.8067 144.804 80.2806 142.589 81.4204 141.059C82.5602 139.529 86.3769 120.167 85.4151 117.109C84.4534 114.052 76.3428 110.986 64.9855 112.43Z" fill="#4BA3BD"/>
<path d="M66.6778 119.287C66.1435 118.221 50.5866 117.877 48.6418 120.698C47.6445 122.146 49.4379 133.526 51.4219 144.267C55.4523 145.61 61.5735 145.866 67.1106 145.381C67.652 145.333 68.1905 145.273 68.726 145.204C67.9245 133.42 66.9663 119.881 66.6778 119.287Z" fill="#53B2CE"/>
<path d="M53.0529 142.107C52.134 140.652 51.5943 136.22 52.4563 136.287C53.3183 136.355 54.9764 145.145 53.0529 142.107Z" fill="#C5E9FB"/>
<path d="M85.4153 121.34C79.3707 117.852 69.8193 112.769 69.2316 112.679C68.9858 112.642 65.8815 112.761 61.5733 112.949C48.8731 115.186 45.304 119.689 45.1883 121.098C45.1224 121.974 45.2275 128.398 46.0164 134.14C48.85 135.111 53.1404 135.856 59.6036 136.028C71.358 136.341 79.2336 133.374 84.06 130.37C84.6656 127.202 85.1713 123.898 85.4153 121.34Z" fill="#2F7287"/>
<path d="M66.0491 82.7759C41.8277 85.8422 35.0173 93.8882 34.7519 96.2777C34.4865 98.6671 34.0894 127.367 39.6585 130.803C45.2276 134.239 57.032 135.037 67.5077 134.111C77.9835 133.185 88.1974 129.746 90.0532 127.36C91.909 124.974 98.9385 94.8191 97.6117 90.0527C96.2849 85.2862 83.8198 80.5286 66.0491 82.7759Z" fill="#C5E9FB"/>
<path d="M34.7518 96.2704C34.4882 98.6332 34.0964 126.941 39.5408 130.714C38.7643 126.214 38.0947 120.055 38.0234 112.06C37.9479 104.832 38.6579 97.6168 40.141 90.541C36.3315 92.9536 34.8711 95.192 34.7518 96.2704Z" fill="#FBFDFE"/>
<path d="M97.6115 90.0526C96.9704 87.7431 93.7219 85.4443 88.5285 83.9342C92.1671 102.968 80.0225 124.651 67.4648 134.107H67.5094C77.9869 133.182 88.199 129.742 90.0548 127.357C91.9106 124.971 98.9383 94.8156 97.6115 90.0526Z" fill="#92C5DE"/>
<path d="M97.6117 90.0527C96.2867 85.2898 83.8198 80.5286 66.0492 82.7689C41.8278 85.8352 35.0173 93.8812 34.752 96.2706C37.5374 103.546 96.0213 102.62 97.6117 90.0527Z" fill="#7CA5BA"/>
<path d="M87.9458 90.5056C87.0269 87.2084 78.3944 83.9093 66.0896 85.4674C49.3145 87.585 44.602 93.1616 44.415 94.8102C46.3474 99.8432 86.8434 99.2072 87.9458 90.5056Z" fill="#364C57"/>
<path d="M84.0441 94.3998C79.3191 89.0293 71.0625 85.215 62.3909 87.9776C55.9134 90.0401 51.9187 93.5062 49.5215 97.1197C58.3552 98.7967 76.1525 98.0808 84.0441 94.3998Z" fill="#4E6E7D"/>
<path d="M58.8876 130.531C66.5047 130.531 72.6796 124.372 72.6796 116.774C72.6796 109.176 66.5047 103.016 58.8876 103.016C51.2706 103.016 45.0957 109.176 45.0957 116.774C45.0957 124.372 51.2706 130.531 58.8876 130.531Z" fill="#4BA3BD"/>
<path d="M61.0692 103.19C59.1255 102.879 57.1374 102.986 55.2388 103.505C53.3402 104.024 51.5752 104.943 50.0625 106.2C48.5498 107.457 47.3246 109.022 46.4694 110.791C45.6142 112.56 45.1487 114.491 45.1045 116.454C45.7384 116.946 46.454 117.323 47.2185 117.568C53.2988 119.59 59.071 109.403 61.0692 103.19Z" fill="#53B2CE"/>
<path d="M57.6938 127.049C63.4557 127.049 68.1268 122.39 68.1268 116.642C68.1268 110.895 63.4557 106.235 57.6938 106.235C51.9318 106.235 47.2607 110.895 47.2607 116.642C47.2607 122.39 51.9318 127.049 57.6938 127.049Z" fill="#61CBEB"/>
<path d="M65.826 118.552C66.8861 114.072 64.1043 109.582 59.6126 108.525C55.1209 107.467 50.6203 110.242 49.5602 114.723C48.5 119.203 51.2818 123.693 55.7735 124.75C60.2652 125.808 64.7658 123.033 65.826 118.552Z" fill="#364C57"/>
<path d="M58.3073 108.925C56.7941 108.925 55.3141 109.367 54.0505 110.198C52.787 111.028 51.7952 112.21 51.1981 113.597C50.601 114.984 50.4248 116.515 50.6912 118.001C50.9575 119.487 51.6549 120.862 52.6969 121.956C53.7389 123.051 55.0798 123.817 56.5536 124.159C58.0274 124.501 59.5694 124.404 60.9888 123.881C62.4081 123.358 63.6425 122.431 64.5391 121.215C65.4357 119.999 65.9552 118.547 66.0332 117.04C66.0332 116.907 66.0439 116.775 66.0439 116.642C66.0439 116.509 66.0439 116.376 66.0332 116.244C65.9314 114.269 65.073 112.408 63.6352 111.046C62.1974 109.684 60.2902 108.924 58.3073 108.925Z" fill="#73BD52"/>
<path d="M58.579 112.144C57.6969 112.144 56.8341 112.402 56.0975 112.885C55.3608 113.369 54.7826 114.058 54.4345 114.867C54.0863 115.675 53.9835 116.568 54.1388 117.434C54.294 118.3 54.7005 119.102 55.3079 119.74C55.9153 120.378 56.697 120.824 57.5561 121.023C58.4152 121.223 59.3141 121.166 60.1415 120.861C60.9688 120.556 61.6883 120.016 62.2108 119.307C62.7334 118.598 63.036 117.752 63.0813 116.873V116.642V116.411C63.0219 115.26 62.5217 114.175 61.6839 113.381C60.8461 112.587 59.7347 112.144 58.579 112.144Z" fill="#538846"/>
<path d="M51.3804 108.999C53.742 107.461 52.7447 106.928 51.2397 107.95C49.7348 108.971 50.0393 109.874 51.3804 108.999Z" fill="#C5E9FB"/>
<path d="M57.8957 110.689C57.8957 110.689 52.9482 115.386 53.1423 116.113C53.3364 116.839 56.9215 117.106 56.9215 117.106C56.9215 117.106 54.7256 121.537 55.4291 121.801C56.1326 122.066 62.0329 117.502 62.1808 116.649C62.3286 115.797 58.585 114.34 58.585 114.34C58.585 114.34 59.0872 109.168 57.8957 110.689Z" fill="white"/>
<path d="M94.6581 95.2241C92.4176 96.2598 87.2528 108.099 90.1095 113.798C92.9662 119.497 98.9966 93.2237 94.6581 95.2241Z" fill="#364C57"/>
<path d="M92.9928 97.1038C91.0765 100.17 88.8876 106.255 89.3275 110.858C93.121 107.989 93.7141 101.797 92.9928 97.1038Z" fill="#4E6E7D"/>
<path d="M23.0434 33.127C23.0434 33.127 12.6157 33.4503 9.73585 35.9108C5.68589 39.368 2.25572 53.5324 4.96994 58.6506C6.30924 61.1733 14.8758 63.8559 14.8758 63.8559L23.0434 33.127Z" fill="#4BA3BD"/>
<path d="M4.90234 46.225L18.591 49.8794L22.258 36.0791C17.671 35.7378 13.0587 36.1118 8.5872 37.1877C7.07336 39.2627 5.73941 42.6559 4.90234 46.225Z" fill="#53B2CE"/>
<path d="M10.3093 39.0055C8.60844 39.0055 9.62182 37.1916 12.231 37.5611C14.8401 37.9307 13.109 39.0037 10.3093 39.0055Z" fill="#C5E9FB"/>
<path d="M8.74337 67.0499C11.4807 49.7996 20.3981 12.1546 55.7204 2.51503C91.0426 -7.12451 120.703 12.7924 127.677 30.9629C136.244 53.2799 128.969 77.782 125.056 81.5625C121.143 85.343 94.1593 90.5572 60.6359 86.1815C27.1124 81.8059 7.76561 73.2092 8.74337 67.0499Z" fill="#28B6EA"/>
<path d="M125.056 81.5627C126.837 79.8377 129.33 73.7903 130.689 65.6058C130.308 42.4964 117.41 17.9445 93.465 11.4086C57.3325 1.54879 31.0256 17.9925 23.8785 48.789C20.6852 62.5448 23.7859 72.5947 28.192 79.5108C36.5965 82.1134 47.5335 84.4674 60.6362 86.1782C94.1596 90.5574 121.143 85.3432 125.056 81.5627Z" fill="#0D81A9"/>
<path d="M120.107 19.2165C109.41 21.6007 101.971 68.0965 99.3386 87.3525C113.282 86.2865 122.848 83.6981 125.056 81.5627C128.974 77.7822 136.244 53.28 127.678 30.9631C126.162 27.0227 123.585 23.0023 120.107 19.2165ZM33.5117 14.5566C16.254 30.0339 10.7828 54.2003 8.74355 67.0501C8.37489 69.3596 10.8807 72.0244 15.9476 74.6892C16.2308 67.0785 17.4365 56.6377 20.7563 43.2177C23.4901 32.1 28.3415 22.4392 33.5117 14.5566Z" fill="#C5E9FB"/>
<path d="M46.9783 9.19483C37.4927 12.9416 29.8594 25.4876 48.225 21.2452C66.5905 17.0028 63.2191 2.77972 46.9783 9.19483Z" fill="white"/>
<path d="M38.8726 52.2069C37.2555 50.8568 41.4105 29.8225 46.6092 29.6235C51.8079 29.4245 55.6477 31.6665 55.7171 32.8728C55.7866 34.0791 51.1026 53.0597 49.6066 53.8716C48.1106 54.6835 40.0641 53.2018 38.8726 52.2069Z" fill="#B4E3F7"/>
<path d="M40.4565 50.1568C39.1564 49.0731 42.4975 32.1568 46.6757 32.004C50.8539 31.8512 53.9421 33.6473 53.9973 34.6156C54.0525 35.5838 50.2875 50.8443 49.0854 51.4927C47.8832 52.1412 41.4147 50.958 40.4565 50.1568Z" fill="white"/>
<path d="M60.4613 68.5938C62.5985 72.5181 67.9023 74.1597 72.0876 73.8772C75.8437 73.6249 79.4733 71.0507 80.6719 67.4141C81.3095 65.4759 78.3335 64.3496 77.6924 66.2931C77.4074 67.1583 77.1581 67.5243 76.5472 68.2935C75.9797 68.9985 75.272 69.5786 74.4686 69.9972C73.6652 70.4158 72.7835 70.6638 71.8792 70.7256C69.5853 70.9033 67.026 70.3028 65.1293 68.9864C64.5753 68.6136 64.077 68.1644 63.6493 67.6522C63.5246 67.5012 63.4124 67.3413 63.2931 67.1832C63.1328 66.9664 63.4872 67.5243 63.3376 67.2489C62.3652 65.4617 59.4729 66.7906 60.4542 68.5938H60.4613Z" fill="#C5E9FB"/>
<path d="M127.564 42.2101C124.859 42.5122 120.69 51.1426 117.413 65.7192C114.136 80.2958 119.783 79.9316 121.725 79.9316C123.666 79.9316 130.879 78.5601 134.642 75.5399C138.405 72.5198 142.591 56.7423 140.697 52.3169C139.212 48.8775 130.172 41.917 127.564 42.2101Z" fill="#4BA3BD"/>
<path d="M118.682 60.4839C126.851 61.6475 136.399 62.8911 140.155 62.9479C140.939 59.553 141.338 56.2237 141.079 53.9746C137.615 50.9953 131.754 46.4385 125.513 43.6902C123.414 46.2573 120.927 52.0648 118.682 60.4839Z" fill="#53B2CE"/>
<path d="M133.483 76.3538C133.883 76.1048 134.268 75.8332 134.637 75.5401C138.398 72.52 142.585 56.7425 140.692 52.3171C137.354 50.1764 128.362 75.7089 133.483 76.3538Z" fill="#2F7287"/>
<path d="M134.239 73.3814C134.541 73.194 134.832 72.9893 135.11 72.7684C137.949 70.4891 141.109 58.5827 139.675 55.2428C137.16 53.6279 130.375 72.8946 134.239 73.3814Z" fill="#1D4754"/>
<path d="M133.51 49.6646C128.88 47.7833 129.439 50.4854 133.154 52.0239C136.869 53.5624 136.461 50.8656 133.51 49.6646Z" fill="#C5E9FB"/>
<path d="M11.1994 65.6356C13.4256 51.6222 19.6483 24.4162 40.0655 9.5127C17.5806 24.2225 11.0213 52.697 8.74337 67.0497C7.76562 73.209 27.1106 81.7951 60.6359 86.1778L61.2806 86.2595C28.8507 80.8713 10.2198 71.7931 11.1994 65.6356Z" fill="white"/>
<path d="M98.2007 46.268C98.865 45.6142 99.2532 44.4062 99.2693 43.4912C99.2831 43 99.1624 42.5143 98.9202 42.0863C98.6779 41.6584 98.3232 41.3045 97.8943 41.0627C97.6966 40.8777 97.449 40.7542 97.1819 40.7074C96.923 40.5989 96.6367 40.5735 96.3627 40.6345C95.2478 40.6345 94.0474 40.9774 93.0091 41.1586C90.6208 41.5797 88.2414 42.0878 85.8959 42.7095C83.5503 43.3313 75.5555 45.0546 77.2492 49.0039C78.0132 50.7804 80.3285 51.4431 82.0471 51.8463C84.6029 52.4504 87.2708 52.6902 89.8835 52.7843C91.9245 52.859 94.1062 52.9318 96.1169 52.4894C98.5622 51.9565 99.7768 48.2879 98.035 46.4101C98.0929 46.3659 98.1482 46.3185 98.2007 46.268Z" fill="#B4E3F7"/>
<path d="M97.1871 41.9543C96.5139 41.7589 76.9961 45.0633 78.1412 48.3996C79.2864 51.736 95.7552 52.0824 96.9004 50.9312C98.0455 49.78 97.9031 47.5948 97.0428 47.2484C96.1826 46.902 85.0159 47.7103 85.0159 47.7103C85.0159 47.7103 97.0428 45.9835 97.6163 45.0633C98.1898 44.143 98.7615 42.4162 97.1871 41.9543Z" fill="white"/>
<path d="M105.025 116.752C96.7043 109.76 92.5582 89.6015 106.45 83.1242C120.342 76.6469 138.212 80.9284 141.357 84.6236C144.502 88.3188 146.474 106.484 142.034 110.57C137.594 114.656 112.407 122.96 105.025 116.752Z" fill="#C5E9FB"/>
<path d="M143.482 89.9213C142.916 87.5141 142.179 85.5812 141.361 84.6236C138.209 80.9284 120.346 76.6469 106.454 83.1242C95.3512 88.2957 95.7644 102.174 100.609 111.124C112.58 110.346 133.655 100.732 143.482 89.9213Z" fill="#FBFDFE"/>
<path d="M141.361 84.6236C127.986 75.3269 122.467 93.9647 126.595 102.863C130.723 111.762 136.401 114.606 142.038 110.568C146.478 106.484 144.506 88.317 141.361 84.6236Z" fill="#7CA5BA"/>
<path d="M137.866 87.9011C128.089 81.0987 124.053 94.7301 127.072 101.236C130.091 107.742 134.24 109.822 138.362 106.869C141.607 103.883 140.169 90.605 137.866 87.9011Z" fill="#364C57"/>
<path d="M138.303 79.0735C138.303 79.0735 137.769 68.6239 142.28 65.9786C146.791 63.3333 149.582 65.9786 149.582 69.418C149.582 72.8574 148.389 76.1689 148.389 76.1689C148.389 76.1689 154.622 73.3921 157.54 76.5668C160.457 79.7415 158.733 82.52 158.733 82.52C158.733 82.52 160.589 85.8262 160.722 87.8106C160.856 89.795 160.058 90.8538 160.058 90.8538C160.058 90.8538 161.127 93.2344 160.988 95.2188C160.849 97.2032 160.179 98.1235 160.179 98.1235C160.179 98.1235 160.576 101.298 158.455 103.151C156.334 105.004 138.298 110.559 134.451 102.357C130.604 94.1547 131.274 85.9541 138.303 79.0735Z" fill="#4BA3BD"/>
<path d="M158.46 103.151C160.581 101.298 160.184 98.1234 160.184 98.1234C160.184 98.1234 160.846 97.1978 160.98 95.2134C161.114 93.229 160.05 90.8485 160.05 90.8485C160.05 90.8485 160.846 89.7825 160.715 87.8052C160.583 85.8279 158.725 82.5147 158.725 82.5147C158.725 82.5147 160.449 79.7362 157.532 76.5615C154.615 73.3868 148.381 76.1635 148.381 76.1635C149.031 74.2357 149.425 72.2313 149.553 70.2014C147.416 73.4738 144.388 77.702 140.955 81.1911C140.955 81.1911 138.835 92.2857 132.878 98.1092C133.282 99.5674 133.81 100.988 134.456 102.357C138.303 110.559 156.337 104.995 158.46 103.151Z" fill="#2F7287"/>
<path d="M160.179 98.1235C160.179 98.1235 160.842 97.1979 160.975 95.2135C161.109 93.2291 160.046 90.8485 160.046 90.8485C160.046 90.8485 160.842 89.7826 160.71 87.8053C160.578 85.828 158.721 82.5147 158.721 82.5147C158.721 82.5147 160.445 79.7362 157.527 76.5615C154.61 73.3868 148.377 76.1636 148.377 76.1636C148.377 76.1636 142.939 77.7518 142.275 81.9853C141.611 86.2188 147.846 86.615 147.846 86.615C147.846 86.615 143.484 87.4073 143.477 89.9211C143.47 92.435 145.723 93.3605 149.176 93.0976C149.176 93.0976 144.533 94.0232 146.257 97.5941C147.981 101.165 150.37 99.1823 150.37 99.1823C150.37 99.1823 148.646 101.696 150.904 103.68C151.668 104.354 153.349 104.615 155.237 104.666C156.84 104.105 158.012 103.544 158.463 103.151C160.582 101.298 160.179 98.1235 160.179 98.1235Z" fill="#54B6D3"/>
</g>
<defs>
<filter id="filter0_d" x="0" y="0" width="165" height="190" filterUnits="userSpaceOnUse" color-interpolation-filters="sRGB">
<feFlood flood-opacity="0" result="BackgroundImageFix"/>
<feColorMatrix in="SourceAlpha" type="matrix" values="0 0 0 0 0 0 0 0 0 0 0 0 0 0 0 0 0 0 127 0" result="hardAlpha"/>
<feOffset dy="4"/>
<feGaussianBlur stdDeviation="2"/>
<feComposite in2="hardAlpha" operator="out"/>
<feColorMatrix type="matrix" values="0 0 0 0 0 0 0 0 0 0 0 0 0 0 0 0 0 0 0.25 0"/>
<feBlend mode="normal" in2="BackgroundImageFix" result="effect1_dropShadow"/>
<feBlend mode="normal" in="SourceGraphic" in2="effect1_dropShadow" result="shape"/>
</filter>
<linearGradient id="paint0_linear" x1="73.7363" y1="176.185" x2="61.2149" y2="140.017" gradientUnits="userSpaceOnUse">
<stop stop-color="white"/>
<stop offset="1" stop-color="#85C14C"/>
</linearGradient>
<linearGradient id="paint1_linear" x1="57492.6" y1="-13554.1" x2="55888.2" y2="-18188.5" gradientUnits="userSpaceOnUse">
<stop stop-color="white"/>
<stop offset="1" stop-color="#85C14C"/>
</linearGradient>
</defs>
</svg>
