<svg width="360" height="276" viewBox="0 0 360 276" fill="none" xmlns="http://www.w3.org/2000/svg">
<path fill-rule="evenodd" clip-rule="evenodd" d="M334.954 164.683C329.274 150.231 315.195 140 298.727 140C286.741 140 276.02 145.42 268.883 153.943C262.666 149.732 255.165 147.273 247.091 147.273C232.98 147.273 220.624 154.784 213.802 166.027C208.512 163.335 202.524 161.818 196.182 161.818C174.693 161.818 157.273 179.238 157.273 200.727C157.273 206.321 158.453 211.639 160.578 216.446C154.183 220.915 150 228.333 150 236.727C150 250.384 161.071 261.455 174.727 261.455C181.118 261.455 186.942 259.03 191.331 255.051C198.194 267.538 211.473 276 226.727 276C240.544 276 252.739 269.058 260.015 258.472C264.746 261.29 270.275 262.909 276.182 262.909C283.229 262.909 289.738 260.605 294.997 256.708C300.792 264.03 309.756 268.727 319.818 268.727C329.345 268.727 337.888 264.516 343.688 257.854C347.435 260.138 351.836 261.455 356.545 261.455C370.202 261.455 381.273 250.384 381.273 236.727C381.273 232.998 380.447 229.462 378.969 226.292C384.933 219.454 388.546 210.513 388.546 200.727C388.546 179.238 371.125 161.818 349.636 161.818C344.442 161.818 339.484 162.836 334.954 164.683Z" fill="#37BCDA"/>
<path fill-rule="evenodd" clip-rule="evenodd" d="M125.954 149.683C120.274 135.231 106.195 125 89.7272 125C77.7407 125 67.0202 130.42 59.8828 138.943C53.6655 134.732 46.1655 132.273 38.091 132.273C23.9801 132.273 11.6237 139.784 4.80217 151.027C-0.488022 148.335 -6.47591 146.818 -12.8182 146.818C-34.3071 146.818 -51.7273 164.238 -51.7273 185.727C-51.7273 191.321 -50.5469 196.639 -48.4216 201.446C-54.817 205.915 -59 213.333 -59 221.727C-59 235.384 -47.9292 246.455 -34.2727 246.455C-27.8821 246.455 -22.0576 244.03 -17.6689 240.051C-10.8055 252.538 2.47264 261 17.7273 261C31.5438 261 43.7388 254.058 51.0149 243.472C55.7462 246.29 61.2749 247.909 67.1818 247.909C74.2292 247.909 80.7385 245.605 85.9971 241.708C91.7915 249.03 100.756 253.727 110.818 253.727C120.345 253.727 128.888 249.516 134.688 242.854C138.435 245.138 142.836 246.455 147.545 246.455C161.202 246.455 172.273 235.384 172.273 221.727C172.273 217.998 171.447 214.462 169.969 211.292C175.933 204.454 179.546 195.513 179.546 185.727C179.546 164.238 162.125 146.818 140.636 146.818C135.442 146.818 130.484 147.836 125.954 149.683Z" fill="#37BCDA"/>
<path fill-rule="evenodd" clip-rule="evenodd" d="M238.312 68.9401C230.502 49.0676 211.144 35 188.5 35C172.019 35 157.278 42.4527 147.464 54.1718C138.915 48.3819 128.603 45 117.5 45C98.0975 45 81.1073 55.3286 71.7277 70.7874C64.4538 67.0865 56.2205 65 47.5 65C17.9528 65 -6 88.9528 -6 118.5C-6 126.191 -4.37704 133.503 -1.4549 140.113C-10.2484 146.259 -16 156.458 -16 168C-16 186.778 -0.777681 202 18 202C26.7871 202 34.7957 198.667 40.8301 193.195C50.2672 210.364 68.5248 222 89.5 222C108.498 222 125.266 212.455 135.27 197.899C141.776 201.774 149.378 204 157.5 204C167.19 204 176.14 200.832 183.371 195.474C191.338 205.541 203.665 212 217.5 212C230.6 212 242.347 206.21 250.322 197.049C255.473 200.19 261.525 202 268 202C286.778 202 302 186.778 302 168C302 162.873 300.865 158.011 298.833 153.651C307.033 144.25 312 131.955 312 118.5C312 88.9528 288.047 65 258.5 65C251.357 65 244.541 66.3998 238.312 68.9401Z" fill="#68C4D3"/>
<path fill-rule="evenodd" clip-rule="evenodd" d="M418.312 58.9401C410.502 39.0676 391.144 25 368.5 25C352.019 25 337.278 32.4527 327.464 44.1718C318.915 38.3819 308.603 35 297.5 35C278.097 35 261.107 45.3286 251.728 60.7874C244.454 57.0865 236.221 55 227.5 55C197.953 55 174 78.9528 174 108.5C174 116.191 175.623 123.503 178.545 130.113C169.752 136.259 164 146.458 164 158C164 176.778 179.222 192 198 192C206.787 192 214.796 188.667 220.83 183.195C230.267 200.364 248.525 212 269.5 212C288.498 212 305.266 202.455 315.27 187.899C321.776 191.774 329.378 194 337.5 194C347.19 194 356.14 190.832 363.371 185.474C371.338 195.541 383.665 202 397.5 202C410.6 202 422.347 196.21 430.322 187.049C435.473 190.19 441.525 192 448 192C466.778 192 482 176.778 482 158C482 152.873 480.865 148.011 478.833 143.651C487.033 134.25 492 121.955 492 108.5C492 78.9528 468.047 55 438.5 55C431.357 55 424.541 56.3998 418.312 58.9401Z" fill="#68C4D3"/>
<path fill-rule="evenodd" clip-rule="evenodd" d="M368.312 48.9401C360.502 29.0676 341.144 15 318.5 15C302.019 15 287.278 22.4527 277.464 34.1718C268.915 28.3819 258.603 25 247.5 25C228.097 25 211.107 35.3286 201.728 50.7874C194.454 47.0865 186.221 45 177.5 45C147.953 45 124 68.9528 124 98.5C124 106.191 125.623 113.503 128.545 120.113C119.752 126.259 114 136.458 114 148C114 166.778 129.222 182 148 182C156.787 182 164.796 178.667 170.83 173.195C180.267 190.364 198.525 202 219.5 202C238.498 202 255.266 192.455 265.27 177.899C271.776 181.774 279.378 184 287.5 184C297.19 184 306.14 180.832 313.371 175.474C321.338 185.541 333.665 192 347.5 192C360.6 192 372.347 186.21 380.322 177.049C385.473 180.19 391.525 182 398 182C416.778 182 432 166.778 432 148C432 142.873 430.865 138.011 428.833 133.651C437.033 124.25 442 111.955 442 98.5C442 68.9528 418.047 45 388.5 45C381.357 45 374.541 46.3998 368.312 48.9401Z" fill="#68C4D3"/>
<path fill-rule="evenodd" clip-rule="evenodd" d="M218.312 28.9401C210.502 9.06764 191.144 -5 168.5 -5C152.019 -5 137.278 2.45265 127.464 14.1718C118.915 8.38193 108.603 5 97.5 5C78.0975 5 61.1073 15.3286 51.7277 30.7874C44.4538 27.0865 36.2205 25 27.5 25C-2.04723 25 -26 48.9528 -26 78.5C-26 86.1912 -24.377 93.5033 -21.4549 100.113C-30.2484 106.259 -36 116.458 -36 128C-36 146.778 -20.7777 162 -2 162C6.78711 162 14.7957 158.667 20.8301 153.195C30.2672 170.364 48.5248 182 69.5 182C88.4976 182 105.266 172.455 115.27 157.899C121.776 161.774 129.378 164 137.5 164C147.19 164 156.14 160.832 163.371 155.474C171.338 165.541 183.665 172 197.5 172C210.6 172 222.347 166.21 230.322 157.049C235.473 160.19 241.525 162 248 162C266.778 162 282 146.778 282 128C282 122.873 280.865 118.011 278.833 113.651C287.033 104.25 292 91.9549 292 78.5C292 48.9528 268.047 25 238.5 25C231.357 25 224.541 26.3998 218.312 28.9401Z" fill="#68C4D3"/>
</svg>
